<?xml version="1.0" standalone="no"?>
<!DOCTYPE svg PUBLIC "-//W3C//DTD SVG 20010904//EN"
 "http://www.w3.org/TR/2001/REC-SVG-20010904/DTD/svg10.dtd">
<svg version="1.0" xmlns="http://www.w3.org/2000/svg"
 width="181.000000pt" height="45.000000pt" viewBox="0 0 181.000000 45.000000"
 preserveAspectRatio="xMidYMid meet">

<g transform="translate(0.000000,45.000000) scale(0.100000,-0.100000)"
fill="#000000" stroke="none">
<path d="M1562 438 c-16 -16 -15 -23 4 -43 15 -15 18 -14 31 5 12 16 12 24 3
35 -15 18 -22 19 -38 3z"/>
<path d="M1436 371 c6 -7 33 -20 60 -31 47 -18 49 -20 48 -57 l0 -38 44 0 44
0 -5 55 c-3 30 -2 49 2 42 6 -10 18 -10 57 4 74 24 72 32 -3 19 -65 -11 -182
-6 -236 11 -16 5 -19 3 -11 -5z"/>
<path d="M46 304 c-9 -8 -16 -28 -16 -44 0 -17 -7 -33 -17 -40 -17 -10 -17
-10 0 -20 12 -8 17 -24 17 -60 0 -67 18 -64 22 3 3 45 6 52 26 55 27 4 30 22
3 22 -26 0 -33 13 -25 45 5 19 12 25 35 25 31 0 39 14 13 24 -25 10 -42 7 -58
-10z"/>
<path d="M571 239 c-33 -39 -61 -77 -61 -85 0 -11 15 -14 60 -14 57 0 60 -1
60 -25 0 -16 6 -25 15 -25 9 0 15 9 15 25 0 16 6 25 15 25 8 0 15 5 15 10 0 6
-7 10 -15 10 -12 0 -15 15 -15 75 0 56 -3 75 -14 75 -7 0 -41 -32 -75 -71z
m55 -65 c-6 -15 -76 -20 -76 -6 0 5 17 28 38 52 l37 44 3 -38 c2 -21 1 -44 -2
-52z"/>
<path d="M135 279 c-10 -15 1 -23 20 -15 9 3 13 10 10 16 -8 13 -22 13 -30 -1z"/>
<path d="M430 250 c0 -10 -8 -24 -17 -30 -17 -10 -17 -10 0 -20 12 -8 17 -24
17 -60 l0 -50 35 0 c24 0 35 5 35 15 0 9 -8 14 -22 12 -20 -2 -23 3 -26 41 -3
39 -1 42 22 42 32 0 34 17 4 22 -15 2 -24 11 -26 26 -4 27 -22 30 -22 2z"/>
<path d="M240 220 c-8 -5 -23 -7 -32 -4 -16 5 -18 -2 -18 -60 0 -52 3 -66 15
-66 11 0 15 12 15 50 0 48 1 51 30 57 17 3 29 10 27 16 -5 15 -20 18 -37 7z"/>
<path d="M311 213 c-27 -22 -21 -42 19 -65 40 -23 40 -42 0 -34 -22 4 -30 2
-30 -9 0 -21 64 -20 81 1 16 20 3 44 -34 62 -36 17 -34 32 3 32 17 0 30 5 30
10 0 6 -4 10 -9 10 -5 0 -16 2 -24 5 -7 3 -24 -2 -36 -12z"/>
<path d="M140 155 c0 -37 4 -65 10 -65 6 0 10 28 10 65 0 37 -4 65 -10 65 -6
0 -10 -28 -10 -65z"/>
</g>
</svg>
